<svg width="164" height="61" viewBox="0 0 164 61" fill="none" xmlns="http://www.w3.org/2000/svg">
<path d="M7.22422 33.7866C6.59101 34.016 6.55263 34.897 7.16332 35.1798L9.57354 36.2977C9.75541 36.382 9.96314 36.3903 10.1517 36.3211L15.8756 34.2145V30.6555L7.22422 33.7857V33.7866Z" fill="#FF5500"/>
<path d="M13.5418 36.7387C12.91 36.9708 12.8741 37.8512 13.4859 38.1325L15.8753 39.2325V35.8833L13.5418 36.7387Z" fill="#FF5500"/>
<path d="M20.2031 18.3122C20.2031 14.9734 17.4325 12.2812 14.0654 12.4097C10.9894 12.5273 8.48989 15.0452 8.39312 18.122C8.30468 20.9285 10.176 23.3112 12.7414 24.0103V26.5815L7.24766 28.5704C6.61444 28.7999 6.57607 29.6808 7.18676 29.9637L9.59697 31.0816C9.77885 31.1659 9.98658 31.1742 10.1751 31.105L15.8741 29.0084V24.0036C18.3702 23.3137 20.2039 21.0277 20.2039 18.3113L20.2031 18.3122ZM14.3023 21.0945C12.7747 21.0945 11.5367 19.8564 11.5367 18.3289C11.5367 16.8013 12.7747 15.5632 14.3023 15.5632C15.8298 15.5632 17.0679 16.8013 17.0679 18.3289C17.0679 19.8564 15.8298 21.0945 14.3023 21.0945Z" fill="#FF5500"/>
<path d="M23.2031 32.5652C23.2031 28.695 25.7001 25.9236 29.2958 25.9236C31.0436 25.9236 32.7164 26.6227 33.5907 28.1711H33.765V26.2481H36.8861V38.8832H33.765V36.9602H33.5907C32.7164 38.5086 31.0687 39.2077 29.2958 39.2077C25.7001 39.2077 23.2031 36.4613 23.2031 32.5661V32.5652ZM33.765 32.5652C33.765 30.2677 32.3418 28.7701 30.1193 28.7701C27.8968 28.7701 26.4485 30.2685 26.4485 32.5652C26.4485 34.862 27.8968 36.3604 30.1193 36.3604C32.3418 36.3604 33.765 34.887 33.765 32.5652Z" fill="black"/>
<path d="M38.6602 32.5662C38.6602 28.696 41.1571 25.9245 44.7529 25.9245C46.5007 25.9245 48.1734 26.6237 49.0477 28.1721H49.2221V21.4053H52.3431V38.8842H49.2221V36.9612H49.0477C48.1734 38.5096 46.5257 39.2087 44.7529 39.2087C41.1571 39.2087 38.6602 36.4623 38.6602 32.567V32.5662ZM49.2221 32.5662C49.2221 30.2686 47.7988 28.7711 45.5763 28.7711C43.3538 28.7711 41.9055 30.2694 41.9055 32.5662C41.9055 34.863 43.3538 36.3613 45.5763 36.3613C47.7988 36.3613 49.2221 34.888 49.2221 32.5662Z" fill="black"/>
<path d="M54.1445 32.5652C54.1445 28.695 56.9911 25.9236 60.9614 25.9236C64.9317 25.9236 67.7783 28.695 67.7783 32.5652C67.7783 36.4354 64.9567 39.2069 60.9614 39.2069C56.9661 39.2069 54.1445 36.4605 54.1445 32.5652ZM64.5071 32.5652C64.5071 30.2927 63.1088 28.7952 60.9614 28.7952C58.814 28.7952 57.4157 30.2935 57.4157 32.5652C57.4157 34.837 58.839 36.3362 60.9614 36.3362C63.0838 36.3362 64.5071 34.8628 64.5071 32.5652Z" fill="black"/>
<path d="M69.5204 38.883V26.2479H72.6164V27.9707H72.8158C73.5649 26.5223 74.9882 25.9233 76.5608 25.9233C79.3323 25.9233 81.0309 27.7963 81.0309 30.8673V38.883H77.9349V31.5914C77.9349 29.7685 76.9613 28.7699 75.2877 28.7699C73.6142 28.7699 72.6155 29.8186 72.6155 31.5914V38.883H69.5195H69.5204Z" fill="black"/>
<path d="M82.6836 32.5662C82.6836 28.696 85.1806 25.9245 88.7763 25.9245C90.5241 25.9245 92.1968 26.6237 93.0711 28.1721H93.2455V21.4053H96.3665V38.8842H93.2455V36.9612H93.0711C92.1968 38.5096 90.5491 39.2087 88.7763 39.2087C85.1806 39.2087 82.6836 36.4623 82.6836 32.567V32.5662ZM93.2455 32.5662C93.2455 30.2686 91.8222 28.7711 89.5997 28.7711C87.3772 28.7711 85.9289 30.2694 85.9289 32.5662C85.9289 34.863 87.3772 36.3613 89.5997 36.3613C91.8222 36.3613 93.2455 34.888 93.2455 32.5662Z" fill="black"/>
<path d="M111.245 33.3642H101.357C101.632 35.3865 102.931 36.5353 104.953 36.5353C106.726 36.5353 107.774 35.6118 108.024 34.7124H111.095C110.745 37.1343 108.348 39.2067 104.852 39.2067C100.932 39.2067 98.1602 36.4352 98.1602 32.54C98.1602 28.6447 100.932 25.9233 104.778 25.9233C108.922 25.9233 111.844 29.0944 111.245 33.3642ZM101.456 31.1668H108.273C107.874 29.5441 106.626 28.5947 104.828 28.5947C103.03 28.5947 101.881 29.5433 101.456 31.1668Z" fill="black"/>
<path d="M116.141 38.8809L111.547 26.2458H114.843L118.114 35.9093H118.314L121.61 26.2458H124.781L120.187 38.8809H116.141Z" fill="black"/>
<path d="M125.852 24.3518V21.4302H129.048V24.3518H125.852ZM125.902 38.884V26.2489H128.998V38.884H125.902Z" fill="black"/>
<path d="M134.719 38.8812L130.125 26.2461H133.421L136.692 35.9095H136.892L140.188 26.2461H143.359L138.765 38.8812H134.719Z" fill="black"/>
<path d="M144.43 24.3518V21.4302H147.626V24.3518H144.43ZM144.48 38.884V26.2489H147.576V38.884H144.48Z" fill="black"/>
<path d="M150.005 38.8813V26.2462H153.101V28.3436H153.3C153.775 26.7201 154.648 26.1211 156.521 26.1211H157.07V29.2171H155.372C153.725 29.2171 153.1 30.3659 153.1 32.0386V38.8805H150.004L150.005 38.8813Z" fill="black"/>
</svg>
